<svg width="24" height="24" viewBox="0 0 24 24" fill="none" xmlns="http://www.w3.org/2000/svg">
    <path d="M12 4.5C6.7665 4.5 2.229 7.548 0 12C2.229 16.452 6.7665 19.5 12 19.5C17.2335 19.5 21.771 16.452 24 12C21.771 7.548 17.2335 4.5 12 4.5ZM17.9175 8.478C19.3275 9.378 20.523 10.5825 21.42 12C20.523 13.419 19.3275 14.6235 17.9175 15.522C16.146 16.6515 14.1 17.25 12.0015 17.25C9.903 17.25 7.857 16.653 6.084 15.522C4.674 14.622 3.4785 13.4175 2.5815 12C3.4785 10.581 4.674 9.3765 6.084 8.478C6.1755 8.4195 6.2685 8.3625 6.3615 8.307C6.1275 8.9475 6 9.639 6 10.3605C6 13.674 8.6865 16.3605 12 16.3605C15.3135 16.3605 18 13.674 18 10.3605C18 9.639 17.8725 8.9475 17.6385 8.307C17.7315 8.3625 17.826 8.4195 17.9175 8.478ZM12 9.75C12 10.992 10.992 12 9.75 12C8.508 12 7.5 10.992 7.5 9.75C7.5 8.508 8.508 7.5 9.75 7.5C10.992 7.5 12 8.508 12 9.75Z" fill="white"/>
</svg>
